<?xml version="1.0" encoding="UTF-8"?>
<svg id="Layer_1" xmlns="http://www.w3.org/2000/svg" version="1.1" viewBox="0 0 612 792">
  <!-- Generator: Adobe Illustrator 29.8.5, SVG Export Plug-In . SVG Version: 2.1.1 Build 2)  -->
  <defs>
    <style>
      .st0 {
        fill: #b3b7b4;
      }

      .st1 {
        fill: #7c7c7c;
      }

      .st2 {
        fill: #dbd3c4;
      }

      .st3 {
        fill: #231f20;
        font-family: MyriadPro-Regular, 'Myriad Pro';
        font-size: 12px;
      }

      .st4 {
        fill: #fff;
      }

      .st5 {
        fill: #b78783;
      }

      .st6 {
        fill: #b59b94;
      }

      .st7 {
        fill: #eae7da;
      }

      .st8 {
        fill: #9f927c;
      }

      .st9 {
        fill: #a28d75;
      }

      .st10 {
        fill: #f8f8f8;
      }

      .st11 {
        fill: #222;
      }

      .st12 {
        fill: #a18077;
      }
    </style>
  </defs>
  <g>
    <rect class="st11" x="20.72" y="24.02" width="70.19" height="98.23"/>
    <rect class="st1" x="109.42" y="24.02" width="70.19" height="98.23"/>
    <rect class="st10" x="198.11" y="24.02" width="70.19" height="98.23"/>
    <rect class="st4" x="286.81" y="24.02" width="70.19" height="98.23"/>
    <text class="st3" transform="translate(29.56 134.52)"><tspan x="0" y="0">Primary</tspan><tspan x="0" y="14.4">#222222</tspan></text>
    <text class="st3" transform="translate(116.1 134.5)"><tspan x="0" y="0">Secondary</tspan><tspan x="0" y="14.4">#7B7B7B</tspan></text>
    <text class="st3" transform="translate(211.45 137.16)"><tspan x="0" y="0">Tertiary</tspan><tspan x="0" y="14.4">#F8F8F8</tspan></text>
    <text class="st3" transform="translate(301.87 138.94)"><tspan x="0" y="0">White</tspan><tspan x="0" y="14.4">#FFFFFF</tspan></text>
  </g>
  <text class="st3" transform="translate(67.62 188.62)"><tspan x="0" y="0">Themes for projects or photos</tspan></text>
  <g>
    <rect class="st8" x="16.29" y="209.86" width="70.19" height="98.23"/>
    <rect class="st7" x="104.99" y="209.86" width="70.19" height="98.23"/>
    <rect class="st9" x="193.69" y="209.86" width="70.19" height="98.23"/>
    <rect class="st2" x="282.39" y="209.86" width="70.19" height="98.23"/>
    <text class="st3" transform="translate(159.53 336.47)"><tspan x="0" y="0">Palette 1</tspan></text>
  </g>
  <g>
    <rect class="st5" x="17.48" y="359.86" width="70.19" height="98.23"/>
    <rect class="st6" x="106.18" y="359.86" width="70.19" height="98.23"/>
    <rect class="st0" x="194.88" y="359.86" width="70.19" height="98.23"/>
    <rect class="st12" x="283.58" y="359.86" width="70.19" height="98.23"/>
    <text class="st3" transform="translate(160.54 484.19)"><tspan x="0" y="0">Palette 2</tspan></text>
  </g>
</svg>